<svg xmlns="http://www.w3.org/2000/svg" width="13" height="14" viewBox="0 0 13 14">
  <path fill="#252525" d="M8.92037221,7.44444444 C9.91152468,6.66666667 10.572293,5.55555556 10.572293,4.11111111 C10.572293,1.88888889 8.81024416,0 6.49755507,0 C4.29499403,0 2.42281714,1.88888889 2.42281714,4.11111111 C2.42281714,5.44444444 3.08358546,6.66666667 4.18486598,7.44444444 C1.76204883,8.44444444 0,10.7777778 0,13.5555556 C0.110128052,13.7777778 0.330384156,14 0.55064026,14 C0.881024416,14 1.10128052,13.8888889 1.21140857,13.5555556 C1.21140857,10.7777778 3.85448182,8.22222222 6.49755507,8.22222222 C9.25075637,8.22222222 11.7837016,10.8888889 11.7837016,13.5555556 C11.8938296,13.7777778 12.1140857,14 12.3343418,14 C12.664726,14 12.8849821,13.8888889 12.9951101,13.5555556 C13.1052382,10.7777778 11.3431894,8.44444444 8.92037221,7.44444444 Z M3.63422572,4.11111111 C3.63422572,2.55555556 4.95576234,1.22222222 6.49755507,1.22222222 C8.0393478,1.22222222 9.36088442,2.55555556 9.36088442,4.11111111 C9.36088442,5.66666667 8.0393478,7 6.49755507,7 C4.95576234,7 3.63422572,5.66666667 3.63422572,4.11111111 Z"/>
</svg>
