<svg xmlns="http://www.w3.org/2000/svg" width="112" height="112" viewBox="0 0 112 112">
  <path fill="#64C2C8" fill-rule="evenodd" stroke="#FFF" stroke-width=".85" d="M62.3333333,104.5 C68.1288481,99.6929603 75.6682936,91.5277284 80.5835122,79.75 C88.6325297,81.449028 93.4255621,83.5233269 95.3333333,84.4663149 C87.6050546,94.9711469 75.8501844,102.398209 62.3333333,104.5 L62.3333333,104.5 Z M57.75,77 C64.9321862,77.1737427 71.0226046,77.8242355 76.0833333,78.6873894 C70.8539136,91.1579479 62.6717274,98.8818549 57.75,102.666667 L57.75,77 Z M33,78.3474445 C38.3707865,77.581441 44.7640449,77.0527321 52.25,77 L52.25,102.666667 C47.0744382,98.8491386 38.4325843,91.0239691 33,78.3474445 L33,78.3474445 Z M13.75,83.2835458 C16.4595254,82.0671823 21.3192079,80.252424 28.6332892,78.8333333 C33.4561353,91.0738643 40.9789565,99.5450666 46.75,104.5 C33.1246072,102.306351 21.3287581,94.4097759 13.75,83.2835458 L13.75,83.2835458 Z M11.9505614,29.3333333 C14.7431825,30.6023177 19.8034009,32.5099233 27.490147,34.0445411 C25.5772578,39.8692069 24.3371876,46.450859 24.2020608,53.8266587 L24.1725018,53.8266587 C24.1725018,54.0537546 24.1851699,54.2712161 24.1879851,54.4969357 C24.1865775,54.7226552 24.1725018,54.9401167 24.1725018,55.1672127 L24.2020608,55.1672127 C24.3371876,62.5320016 25.5913335,69.0847506 27.5,74.9025347 C19.4036507,76.4522922 14.1041452,78.4369728 11.2031411,79.75 C6.99591086,72.4829311 4.58333388,64.0968988 4.58333388,55.1658363 C4.58192631,45.7200231 7.28024023,36.8811753 11.9505614,29.3333333 L11.9505614,29.3333333 Z M44.9166667,5.5 C39.4769617,10.5732047 33.0260121,18.4609861 28.7176456,29.3333333 C21.8941322,27.9566988 17.2937194,26.2554126 14.6666667,25.086388 C21.8954969,15.1475884 32.5906719,7.98713826 44.9166667,5.5 L44.9166667,5.5 Z M52.25,5.5 L52.25,31.1666667 C44.7373596,31.0796048 38.3426966,30.5143937 33,29.7197814 C38.4339888,17.0971931 47.0744382,9.30170139 52.25,5.5 L52.25,5.5 Z M77,29.5778831 C71.6631151,30.4116834 65.2718219,31.0283913 57.75,31.1666667 L57.75,5.5 C62.9219574,9.28874403 71.543296,17.040459 77,29.5778831 L77,29.5778831 Z M95.3333333,24.9669318 C92.8622917,26.0946965 88.2718408,27.8685032 81.3092449,29.3333333 C76.9729033,18.4728049 70.5267675,10.5826655 65.0833333,5.5 C77.3767311,7.98304852 88.0603119,15.0909153 95.3333333,24.9669318 L95.3333333,24.9669318 Z M85.9481225,54.187035 C85.9495202,53.95851 85.9634972,53.7383457 85.9634972,53.5084273 L85.9341455,53.5084273 C85.7985688,45.9587434 84.5448331,39.225618 82.6104182,33.2811825 C90.3872133,31.6355242 95.3714066,29.6289637 97.9208089,28.4166667 C102.667393,36.1224165 105.416667,45.1770208 105.416667,54.8656426 C105.416667,64.2811492 102.826731,73.1044417 98.3219484,80.6666667 C96.4210783,79.6605995 91.320876,77.2861696 82.5,75.3548551 C84.4875274,69.3407473 85.7971711,62.5351628 85.9341455,54.8656426 L85.9634972,54.8656426 C85.9620995,54.6357242 85.9495202,54.4155599 85.9481225,54.187035 L85.9481225,54.187035 Z M57.75,35.7190555 C65.8650943,35.5739716 72.6975472,34.8666874 78.3538994,33.9166667 C80.2716352,39.7088637 81.5127673,46.3673792 81.5833333,53.9675452 C81.5113836,61.6681539 80.241195,68.4047916 78.2791824,74.25 C72.6712579,73.2706835 65.8526415,72.5327084 57.75,72.3499585 L57.75,35.7190555 Z M28.4166667,54.5458155 C28.4872327,47.0834503 29.7062264,40.5379769 31.593522,34.8333333 C37.2747799,35.7336298 44.1293711,36.3766987 52.25,36.467973 L52.25,72.7287617 C44.157044,72.7840795 37.3010692,73.3842771 31.5907547,74.25 C29.7048428,68.5495053 28.4858491,62.0054148 28.4166667,54.5458155 L28.4166667,54.5458155 Z M55,0 C24.6734268,0 0,24.6720446 0,55 C0,85.3279554 24.6734268,110 55,110 C55.0856956,110 55.1686269,109.994471 55.2543225,109.993089 C55.2598512,109.994471 55.2709087,109.998618 55.2778197,110 L55.2902593,109.993089 C85.4827604,109.83552 110,85.2298201 110,55 C110,24.6734268 85.3265732,0 55,0 L55,0 Z" opacity=".15" transform="translate(1 1)"/>
</svg>
