<svg xmlns="http://www.w3.org/2000/svg" width="129" height="128" viewBox="0 0 129 128">
  <path fill="#64C2C8" d="M117.103434,51.6696444 C110.713563,51.6427968 105.452065,56.6645213 105.207212,63.0237403 L105.207212,64.0110529 L87.3215728,64.0110529 L87.3215728,63.0237403 C87.1975768,58.2250355 85.6130846,53.5770011 82.777877,49.6950191 L82.2408948,48.9545346 L109.998746,21.5154697 L110.659647,21.92685 C112.55534,23.1443018 114.765182,23.787404 117.020821,23.7780613 C121.852824,23.794713 126.218342,20.9086593 128.079066,16.4674296 C129.93979,12.0261999 128.928687,6.90584357 125.517851,3.49710971 C122.107015,0.0883758453 116.969247,-0.936349864 112.503425,0.901387979 C108.037603,2.73912582 105.124628,7.07682649 105.124599,11.8891711 C105.11863,14.1667445 105.778883,16.3967397 107.02469,18.3067035 L107.47906,19.00605 L79.5559836,46.2805627 L78.853776,45.7046303 C74.6395672,42.1791862 69.3218,40.2295228 63.8182734,40.1921346 C58.5433268,40.1994829 53.4287567,41.9989778 49.3197531,45.2932501 L48.6175455,45.8691825 L21.5619021,18.9237739 L22.0162717,18.3067035 C23.2498172,16.423808 23.896545,14.2195792 23.8750563,11.9714472 C23.8750563,5.40539442 18.5304429,0.0825569775 11.9375282,0.0825569775 C5.34461341,0.0825569775 0,5.40539442 0,11.9714472 C0,18.5374999 5.34461341,23.8603373 11.9375282,23.8603373 C14.1948575,23.8817384 16.4081038,23.2376456 18.2987024,22.0091261 L19.0009099,21.5977458 L46.0565533,48.5020163 L45.4782648,49.2013627 C38.7122809,57.6176425 38.7122809,69.5817028 45.4782648,77.9979825 L46.0565533,78.7384671 L19.1248289,105.642738 L18.4226213,105.190219 C16.5320228,103.9617 14.3187764,103.317607 12.0614471,103.339008 C5.46853239,103.339008 0.123918978,108.661845 0.123918978,115.227898 C0.123918978,121.793951 5.46853239,127.116788 12.0614471,127.116788 C18.6543619,127.116788 23.9989753,121.793951 23.9989753,115.227898 C24.0002519,112.938951 23.3093512,110.702672 22.0162717,108.810366 L21.6032084,108.111019 L48.4523202,81.1656107 L49.1958341,81.7415431 C51.8350178,83.8274622 54.8909563,85.328168 58.1593068,86.1433121 L58.8615143,86.1433121 L60.1420104,102.269419 L59.4398029,102.516247 C53.8915835,104.845432 50.9776617,110.9467 52.6642698,116.703087 C54.3508778,122.459474 60.1022672,126.042473 66.0375622,125.034376 C71.9728572,124.026279 76.2067198,118.747308 75.8822588,112.759563 C75.5577977,106.771818 70.7780776,101.977298 64.7683189,101.611211 L63.8595798,101.611211 L62.7030026,86.7192445 L63.8182734,86.7192445 C74.8855225,86.9065686 84.5405947,79.272572 86.8672033,68.495098 L86.8672033,67.7134755 L105.868113,67.7134755 L106.115951,68.3305459 C108.525858,73.7289669 114.560863,76.5342247 120.263412,74.9067264 C125.965962,73.279228 129.593147,67.7163974 128.766381,61.8661502 C127.939616,56.0159031 122.911591,51.666292 116.979515,51.6696444 L117.103434,51.6696444 Z M116.759124,3.76642336 C121.439435,3.76642336 125.233577,7.560565 125.233577,12.2408759 C125.233577,16.9211868 121.439435,20.7153285 116.759124,20.7153285 C112.078813,20.7153285 108.284672,16.9211868 108.284672,12.2408759 C108.284672,7.560565 112.078813,3.76642336 116.759124,3.76642336 Z M12.2408759,20.7153285 C7.560565,20.7153285 3.76642336,16.9211868 3.76642336,12.2408759 C3.76642336,7.560565 7.560565,3.76642336 12.2408759,3.76642336 C16.9211868,3.76642336 20.7153285,7.560565 20.7153285,12.2408759 C20.6920094,16.9046309 16.9046892,20.6730145 12.2408759,20.6729562 L12.2408759,20.7153285 Z M12.2408759,123.350365 C7.560565,123.350365 3.76642336,119.556223 3.76642336,114.875912 C3.76642336,110.195601 7.560565,106.40146 12.2408759,106.40146 C16.9211868,106.40146 20.7153285,110.195601 20.7153285,114.875912 C20.6920094,119.539667 16.9046892,123.308051 12.2408759,123.307993 L12.2408759,123.350365 Z M63.5584443,105.502121 C67.9787102,105.502121 71.5620438,109.286801 71.5620438,113.95544 C71.5620438,118.624079 67.9787102,122.408759 63.5584443,122.408759 C59.1381783,122.408759 55.5548447,118.624079 55.5548447,113.95544 C55.5441965,111.706166 56.3827274,109.545157 57.8848491,107.950699 C59.3869709,106.356241 61.4288059,105.459826 63.5584443,105.459854 L63.5584443,105.502121 Z M63.0875697,83.8029197 C52.1722226,83.8028958 43.3214694,74.9582901 43.3138735,64.0429577 C43.3062776,53.1276252 52.1447124,44.2707097 63.0600489,44.2554941 C73.9753854,44.2402784 82.8384784,53.0725185 82.8613139,63.9878297 C82.8613139,74.908555 74.008307,83.7615521 63.0875697,83.7615521 L63.0875697,83.8029197 Z M116.759124,72.5036496 C112.078813,72.5036496 108.284672,68.709508 108.284672,64.0291971 C108.284672,59.3488862 112.078813,55.5547445 116.759124,55.5547445 C121.439435,55.5547445 125.233577,59.3488862 125.233577,64.0291971 C125.233577,68.709508 121.439435,72.5036496 116.759124,72.5036496 Z" opacity=".153"/>
</svg>
