<svg xmlns="http://www.w3.org/2000/svg" width="101" height="113" viewBox="0 0 101 113">
  <path fill="#64C2C8" d="M0.607667286,112.112794 C0.98539262,112.528592 1.5163393,112.765635 2.07298791,112.76699 L2.07298791,112.76699 C2.61187815,112.765157 3.12727137,112.542408 3.50256901,112.149138 C3.91895338,111.770509 4.15359882,111.226996 4.14588051,110.659025 C4.07021679,85.3832053 23.6968885,64.5888236 48.5343736,63.6295907 C49.8200023,63.7023353 51.1086139,63.7023353 52.3942426,63.6295907 C77.2039725,64.5878406 96.8198556,85.3386698 96.7827358,110.586336 C96.7774024,111.157109 96.9960707,111.706489 97.3903077,112.112794 C97.7729443,112.521531 98.3007676,112.757179 98.8556284,112.76699 C99.4154301,112.764659 99.9528984,112.543432 100.356689,112.149138 C100.746176,111.751271 100.975587,111.219881 101,110.659025 C100.948426,87.715019 86.0076882,67.5606377 64.3312448,61.1945272 L63.2233194,60.8674292 L64.2597657,60.3586099 C77.3259333,53.8481404 84.2502069,39.0336653 80.964243,24.6194008 C77.678279,10.2051363 65.0503817,0 50.5000477,0 C35.9497136,0 23.3218163,10.2051363 20.0358524,24.6194008 C16.7498884,39.0336653 23.674162,53.8481404 36.7403296,60.3586099 L37.7767759,60.8674292 L36.6688505,61.1945272 C15.0106461,67.5425778 0.0714894598,87.6652127 9.53191677e-05,110.586336 C-0.0052380111,111.157109 0.21343028,111.706489 0.607667286,112.112794 Z M23.5339806,32.3969084 C23.5325497,17.4681477 35.2178626,5.26661535 49.8571492,4.91086708 C64.4964359,4.55511881 76.7387201,16.1751883 77.4349912,31.0870638 C78.1312622,45.9989393 67.0270179,58.7520074 52.4207791,59.815534 C51.0689339,59.815534 49.8593881,59.815534 48.6498424,59.815534 C34.5274177,58.7900096 23.5727173,46.8309205 23.5339806,32.3969084 L23.5339806,32.3969084 Z" opacity=".152"/>
</svg>
