<svg xmlns="http://www.w3.org/2000/svg" width="107" height="120" viewBox="0 0 107 120">
  <g fill="#64C2C8" opacity=".147">
    <rect width="6" height="13" x="34" y="67"/>
    <rect width="6" height="13" x="19" y="67"/>
    <rect width="6" height="13" x="34" y="47"/>
    <rect width="6" height="13" x="19" y="47"/>
    <rect width="6" height="13" x="34" y="27"/>
    <rect width="6" height="13" x="19" y="27"/>
    <path d="M0,120 L107,120 L107,42.8747433 L60.5487484,42.8747433 L60.5487484,13.8339689 L46.7332016,13.8339689 L46.7332016,0 L13.8507905,0 L13.8507905,13.8339689 L0,13.8339689 L0,120 Z M36.7239789,116.198299 L23.8600132,116.198299 L23.8600132,93.7048988 L36.7239789,93.7048988 L36.7239789,116.198299 Z M60.5487484,46.6412438 L103.193676,46.6412438 L103.193676,116.198299 L60.5487484,116.198299 L60.5487484,46.6412438 Z M17.6218709,3.76650044 L42.9268775,3.76650044 L42.9268775,13.8339689 L17.6218709,13.8339689 L17.6218709,3.76650044 Z M3.77108037,17.6004693 L56.8129117,17.6004693 L56.8129117,116.163098 L40.4950593,116.163098 L40.4950593,89.9383984 L20.0889328,89.9383984 L20.0889328,116.198299 L3.77108037,116.198299 L3.77108037,17.6004693 Z"/>
    <rect width="6" height="13" x="88" y="97"/>
    <rect width="6" height="13" x="71" y="97"/>
    <rect width="6" height="13" x="88" y="77"/>
    <rect width="6" height="13" x="71" y="77"/>
    <rect width="6" height="13" x="88" y="54"/>
    <rect width="6" height="13" x="71" y="54"/>
  </g>
</svg>
