<svg xmlns="http://www.w3.org/2000/svg" xmlns:xlink="http://www.w3.org/1999/xlink" width="14" height="13" viewBox="0 0 14 13">
  <defs>
    <path id="insta-a" d="M14,13 L10.905809,13 L10.905809,8.42998015 C10.905809,7.2337837 10.4218015,6.41717359 9.35747883,6.41717359 C8.54339135,6.41717359 8.09066322,6.96823974 7.87993885,7.49932766 C7.80091722,7.68995326 7.81326435,7.95549721 7.81326435,8.22104117 L7.81326435,13 L4.74788335,13 C4.74788335,13 4.78739417,4.90465518 4.74788335,4.16879042 L7.81326435,4.16879042 L7.81326435,5.55478005 C7.9943556,4.94877377 8.97389464,4.08388295 10.5370414,4.08388295 C12.4763641,4.08388295 14,5.35416533 14,8.08951783 L14,13 L14,13 Z M1.64793039,3.06416085 L1.62817498,3.06416085 C0.640404516,3.06416085 0,2.3890632 0,1.53332906 C0,0.660946405 0.659336783,0 1.66686265,0 C2.67356538,0 3.2925682,0.659281552 3.31232361,1.53083179 C3.31232361,2.38656592 2.67356538,3.06416085 1.64793039,3.06416085 L1.64793039,3.06416085 L1.64793039,3.06416085 Z M0.35312794,4.16879042 L3.08184384,4.16879042 L3.08184384,13 L0.35312794,13 L0.35312794,4.16879042 L0.35312794,4.16879042 Z"/>
  </defs>
  <use fill="#867770" fill-rule="evenodd" xlink:href="#insta-a"/>
</svg>
