<svg xmlns="http://www.w3.org/2000/svg" width="43" height="30" viewBox="0 0 43 30">
  <path fill="#867770" d="M4.84825 29.91725C6.52514143 29.921583 8.03892387 28.9136318 8.68163609 27.364792 9.3243483 25.8159522 8.96895457 24.0323609 7.78166437 22.8481626 6.59437417 21.6639643 4.80986214 21.3132225 3.26270354 21.9599713 1.71554494 22.60672.711544445 24.1231256.72025 25.8.732051301 28.0731807 2.57504626 29.9113762 4.84825 29.91725zM4.84825 22.86525C6.46172883 22.8652609 7.77025802 24.1722022 7.77222806 25.7856798 7.7741981 27.3991575 6.46886432 28.7092903 4.85539033 28.7132412 3.24191633 28.7171922 1.93018191 27.4134679 1.92425 25.8 1.91260089 25.0200127 2.21657026 24.2684029 2.76715308 23.7157958 3.3177359 23.1631888 4.06822516 22.8564633 4.84825 22.86525L4.84825 22.86525zM41.65625 4.3L14.3405 4.3C14.1878044 4.31848082 14.0467392 4.3909197 13.94275 4.50425 13.8389335 4.62430961 13.7783723 4.77571271 13.77075 4.93425 13.7864235 5.09323788 13.8635708 5.23981776 13.98575 5.34275 14.0989814 5.45063682 14.2486238 5.51202859 14.405 5.51475L41.6455 5.51475C41.8109853 5.51991886 41.9696184 5.44853396 42.0755 5.32125 42.1922025 5.21207918 42.261638 5.06163567 42.269 4.902 42.2574634 4.74341194 42.1886969 4.59441792 42.0755 4.48275 41.9606784 4.37580711 41.8127508 4.31132582 41.65625 4.3zM32.58325 25.1765L14.30825 25.1765C13.9880568 25.2187623 13.7463121 25.4878742 13.7385 25.81075 13.7518532 25.9704244 13.8294412 26.1178417 13.9535 26.21925 14.0641761 26.3310154 14.2154689 26.3930842 14.37275 26.39125L32.5725 26.39125C32.7325567 26.3814778 32.8843822 26.316952 33.0025 26.2085 33.1173866 26.0980269 33.1864689 25.9483487 33.196 25.78925 33.1705174 25.461973 32.910527 25.2019826 32.58325 25.1765L32.58325 25.1765zM41.65625 14.7275L14.3405 14.7275C14.1878044 14.7459808 14.0467392 14.8184197 13.94275 14.93175 13.8374477 15.0508998 13.7766689 15.2028469 13.77075 15.36175 13.7885604 15.520089 13.8653155 15.6659237 13.98575 15.77025 14.10005 15.8751324 14.2498767 15.9327581 14.405 15.9315L41.6455 15.9315C41.8106998 15.948428 41.9730358 15.8794352 42.0755 15.74875 42.1991224 15.6445796 42.270469 15.4911601 42.270469 15.3295 42.270469 15.1678399 42.1991224 15.0144204 42.0755 14.91025 41.9639433 14.7984275 41.8141033 14.7331127 41.65625 14.7275L41.65625 14.7275zM4.84825.74175C3.17330484.74175565 1.66349076 1.75129682 1.02352589 3.29916188.383561013 4.84702695.739629667 6.62801741 1.92553388 7.81084135 3.1114381 8.9936653 4.89334859 9.34510079 6.43954402 8.70111243 7.98573944 8.05712407 8.99135051 6.54468951 8.987 4.86975 8.98700372 3.77307123 8.55061533 2.72146586 7.77413857 1.94700592 6.99766182 1.17254599 5.94492506.738894066 4.84825.74175zM4.84825 7.79375C3.23336939 7.79375 1.92425 6.48463061 1.92425 4.86975 1.92425 3.25486939 3.23336939 1.94575 4.84825 1.94575 6.46313061 1.94575 7.77225 3.25486939 7.77225 4.86975 7.78097758 5.64788574 7.47571757 6.39669824 6.92545791 6.94695791 6.37519824 7.49721757 5.62638574 7.80247758 4.84825 7.79375L4.84825 7.79375zM4.84825 11.19075C2.56248149 11.19075.7095 13.0437315.7095 15.3295.7095 17.6152685 2.56248149 19.46825 4.84825 19.46825 7.13401851 19.46825 8.987 17.6152685 8.987 15.3295 8.987 13.0437315 7.13401851 11.19075 4.84825 11.19075L4.84825 11.19075zM4.84825 18.2535C3.6656024 18.2535 2.59940589 17.5410903 2.14682625 16.4484664 1.6942466 15.3558424 1.94441163 14.0981779 2.78066977 13.2619198 3.61692791 12.4256616 4.87459244 12.1754966 5.96721636 12.6280762 7.05984027 13.0806559 7.77225 14.1468524 7.77225 15.3295 7.78683495 16.1113354 7.48416354 16.8657488 6.93325532 17.4207078 6.3823471 17.9756669 5.63017131 18.2838569 4.84825 18.275L4.84825 18.2535z"/>
</svg>
