<svg xmlns="http://www.w3.org/2000/svg" xmlns:xlink="http://www.w3.org/1999/xlink" width="25" height="14" viewBox="0 0 25 14">
  <defs>
    <polygon id="logo-unflux-a" points="0 .157 10.524 .157 10.524 7.635 0 7.635"/>
  </defs>
  <g fill="none" fill-rule="evenodd" opacity=".748" transform="translate(.877)">
    <g transform="translate(0 4.32)">
      <mask id="logo-unflux-b" fill="#fff">
        <use xlink:href="#logo-unflux-a"/>
      </mask>
      <path fill="#AAA" d="M4.51452924,3.14682254 C4.51452924,3.97499155 3.83721734,4.64901972 3.00480494,4.64901972 C2.17222265,4.64901972 1.49491076,3.97499155 1.49491076,3.14682254 L1.49491076,0.90096338 C1.49491076,0.490259155 1.16024699,0.157470423 0.74743839,0.157470423 C0.334629788,0.157470423 -3.39760166e-05,0.490259155 -3.39760166e-05,0.90096338 L-3.39760166e-05,3.14682254 C-3.39760166e-05,4.7952169 1.34796448,6.13634366 3.00480494,6.13634366 C4.66147551,6.13634366 6.00947397,4.7952169 6.00947397,3.14682254 C6.00947397,2.31848451 6.68678586,1.64462535 7.51919827,1.64462535 C8.35178056,1.64462535 9.02909245,2.31848451 9.02909245,3.14682254 L9.02909245,6.89149859 C9.02909245,7.30220282 9.36375621,7.63532958 9.77656481,7.63532958 C10.1893734,7.63532958 10.5240372,7.30220282 10.5240372,6.89149859 L10.5240372,3.14682254 C10.5240372,1.49842817 9.17603872,0.157470423 7.51919827,0.157470423 C5.8625277,0.157470423 4.51452924,1.49842817 4.51452924,3.14682254" mask="url(#logo-unflux-b)"/>
    </g>
    <path fill="#AAA" d="M13.5283834,5.96498028 C13.941192,5.96498028 14.2758558,5.63185352 14.2758558,5.22131831 C14.2758558,4.81061408 13.941192,4.47748732 13.5283834,4.47748732 C13.1155748,4.47748732 12.7809111,4.14452958 12.7809111,3.73399437 L12.7809111,2.98948732 C12.7809111,2.1611493 13.458223,1.48729014 14.2906354,1.48729014 C15.1232177,1.48729014 15.8005296,2.1611493 15.8005296,2.98948732 L15.8005296,7.46734648 C15.8005296,9.11574085 17.148528,10.4566986 18.8051986,10.4566986 C19.7040341,10.4566986 20.5113043,10.0613746 21.0625651,9.43720563 C21.6136561,10.0613746 22.4209263,10.4566986 23.3197618,10.4566986 C23.7325704,10.4566986 24.0672342,10.1235718 24.0672342,9.71303662 C24.0672342,9.30233239 23.7325704,8.96920563 23.3197618,8.96920563 C22.4871795,8.96920563 21.8100375,8.29551549 21.8100375,7.46734648 C21.8100375,6.63883944 22.4871795,5.9651493 23.3197618,5.9651493 C23.7325704,5.9651493 24.0672342,5.63202254 24.0672342,5.22148732 C24.0672342,4.8107831 23.7325704,4.47782535 23.3197618,4.47782535 C22.4209263,4.47782535 21.6136561,4.87298028 21.0625651,5.49731831 C20.5113043,4.87298028 19.7040341,4.47782535 18.8051986,4.47782535 C18.39239,4.47782535 18.0577262,4.8107831 18.0577262,5.22148732 C18.0577262,5.63202254 18.39239,5.9651493 18.8051986,5.9651493 C19.637611,5.9651493 20.3150928,6.63883944 20.3150928,7.46734648 C20.3150928,8.29551549 19.637611,8.96920563 18.8051986,8.96920563 C17.9727862,8.96920563 17.2954743,8.29551549 17.2954743,7.46734648 L17.2954743,2.98948732 C17.2954743,1.34109296 15.9474758,-3.38028167e-05 14.2906354,-3.38028167e-05 C12.6337949,-3.38028167e-05 11.2859663,1.34109296 11.2859663,2.98948732 L11.2859663,12.7035718 C11.2859663,13.1142761 11.6206301,13.4472338 12.0334387,13.4472338 C12.4462473,13.4472338 12.7809111,13.1142761 12.7809111,12.7035718 L12.7809111,6.70847324 C12.7809111,6.29793803 13.1155748,5.96498028 13.5283834,5.96498028 L18.8051986,35.1259026"/>
  </g>
</svg>
