<?xml version="1.0" encoding="utf-8"?>
<!-- Generator: Adobe Illustrator 22.1.0, SVG Export Plug-In . SVG Version: 6.00 Build 0)  -->
<svg version="1.1" xmlns="http://www.w3.org/2000/svg" xmlns:xlink="http://www.w3.org/1999/xlink" x="0px" y="0px"
	 viewBox="0 0 50 50" style="enable-background:new 0 0 50 50;" xml:space="preserve">
<style type="text/css">
	.st0{display:none;}
	.st1{display:inline;}
	.st2{clip-path:url(#SVGID_2_);enable-background:new    ;}
	.st3{clip-path:url(#SVGID_4_);}
	.st4{clip-path:url(#SVGID_6_);}
	.st5{clip-path:url(#SVGID_8_);fill:#64C2C8;}
	.st6{clip-path:url(#SVGID_10_);enable-background:new    ;}
	.st7{clip-path:url(#SVGID_12_);}
	.st8{clip-path:url(#SVGID_14_);}
	.st9{clip-path:url(#SVGID_16_);fill:#64C2C8;}
	.st10{clip-path:url(#SVGID_18_);enable-background:new    ;}
	.st11{clip-path:url(#SVGID_20_);}
	.st12{clip-path:url(#SVGID_22_);}
	.st13{clip-path:url(#SVGID_24_);fill:#64C2C8;}
	.st14{fill:#64C2C8;}
</style>
<g id="in" class="st0">
	<g class="st1">
		<defs>
			<path id="SVGID_1_" d="M4.1,16.6h8.6v27.2H4.1V16.6z M8.2,13.2L8.2,13.2C5,13.2,3,11.1,3,8.5c0-2.7,2.1-4.7,5.2-4.7
				c3.2,0,5.1,2,5.2,4.7C13.4,11.1,11.4,13.2,8.2,13.2z M47,43.8h-9.7V29.7c0-3.7-1.5-6.2-4.9-6.2c-2.6,0-4,1.7-4.6,3.3
				c-0.2,0.6-0.2,1.4-0.2,2.2v14.7h-9.6c0,0,0.1-24.9,0-27.2h9.6v4.3c0.6-1.9,3.6-4.5,8.6-4.5c6.1,0,10.9,3.9,10.9,12.3V43.8z"/>
		</defs>
		<clipPath id="SVGID_2_">
			<use xlink:href="#SVGID_1_"  style="overflow:visible;"/>
		</clipPath>
		<g class="st2">
			<g>
				<defs>
					<rect id="SVGID_3_" x="3" y="3.8" width="44" height="40"/>
				</defs>
				<clipPath id="SVGID_4_">
					<use xlink:href="#SVGID_3_"  style="overflow:visible;"/>
				</clipPath>
				<g class="st3">
					<defs>
						<rect id="SVGID_5_" x="3" y="3.8" width="44" height="40"/>
					</defs>
					<clipPath id="SVGID_6_">
						<use xlink:href="#SVGID_5_"  style="overflow:visible;"/>
					</clipPath>
					<g class="st4">
						<defs>
							<rect id="SVGID_7_" x="3" y="3.8" width="44" height="40"/>
						</defs>
						<clipPath id="SVGID_8_">
							<use xlink:href="#SVGID_7_"  style="overflow:visible;"/>
						</clipPath>
						<rect x="-2" y="-1.2" class="st5" width="54" height="50"/>
					</g>
				</g>
			</g>
		</g>
	</g>
</g>
<g id="twitter" class="st0">
	<g class="st1">
		<defs>
			<path id="SVGID_9_" d="M49,10.6c-1.8,0.8-3.7,1.3-5.7,1.6c2-1.2,3.6-3.2,4.3-5.6c-1.9,1.2-4,2-6.3,2.4c-1.8-2-4.4-3.2-7.2-3.2
				c-5.4,0-9.8,4.5-9.8,10.1c0,0.8,0.1,1.6,0.3,2.3C16.5,17.9,9.2,13.9,4.3,7.7C3.5,9.2,3,11,3,12.8c0,3.5,1.7,6.6,4.4,8.4
				c-1.6,0-3.1-0.5-4.5-1.3v0.1c0,4.9,3.4,9,7.9,9.9c-0.8,0.2-1.7,0.4-2.6,0.4c-0.6,0-1.3-0.1-1.9-0.2c1.3,4,4.9,6.9,9.2,7
				c-3.4,2.7-7.6,4.3-12.2,4.3c-0.8,0-1.6,0-2.3-0.1c4.4,2.9,9.5,4.5,15.1,4.5c18.1,0,28-15.4,28-28.7c0-0.4,0-0.9,0-1.3
				C46,14.4,47.7,12.7,49,10.6"/>
		</defs>
		<clipPath id="SVGID_10_">
			<use xlink:href="#SVGID_9_"  style="overflow:visible;"/>
		</clipPath>
		<g class="st6">
			<g>
				<defs>
					<rect id="SVGID_11_" x="0.8" y="5.9" width="49" height="41"/>
				</defs>
				<clipPath id="SVGID_12_">
					<use xlink:href="#SVGID_11_"  style="overflow:visible;"/>
				</clipPath>
				<g class="st7">
					<defs>
						<rect id="SVGID_13_" x="0.8" y="5.9" width="49" height="41"/>
					</defs>
					<clipPath id="SVGID_14_">
						<use xlink:href="#SVGID_13_"  style="overflow:visible;"/>
					</clipPath>
					<g class="st8">
						<defs>
							<rect id="SVGID_15_" x="0.8" y="5.9" width="49" height="40"/>
						</defs>
						<clipPath id="SVGID_16_">
							<use xlink:href="#SVGID_15_"  style="overflow:visible;"/>
						</clipPath>
						<rect x="-4.2" y="0.9" class="st9" width="59" height="51"/>
					</g>
				</g>
			</g>
		</g>
	</g>
</g>
<g id="Calque_3" class="st0">
	<g class="st1">
		<defs>
			<path id="SVGID_17_" d="M28.3,46.4V26.9h6.5l1-7.6h-7.5v-4.9c0-2.2,0.6-3.7,3.8-3.7l4,0V3.9c-0.7-0.1-3.1-0.3-5.9-0.3
				c-5.8,0-9.8,3.5-9.8,10v5.6h-6.6v7.6h6.6v19.5H28.3z"/>
		</defs>
		<use xlink:href="#SVGID_17_"  style="overflow:visible;fill-rule:evenodd;clip-rule:evenodd;fill:#0F6B6D;"/>
		<clipPath id="SVGID_18_">
			<use xlink:href="#SVGID_17_"  style="overflow:visible;"/>
		</clipPath>
		<g class="st10">
			<g>
				<defs>
					<rect id="SVGID_19_" x="13.5" y="3.6" width="23" height="43"/>
				</defs>
				<clipPath id="SVGID_20_">
					<use xlink:href="#SVGID_19_"  style="overflow:visible;"/>
				</clipPath>
				<g class="st11">
					<defs>
						<rect id="SVGID_21_" x="13.5" y="3.6" width="23" height="43"/>
					</defs>
					<clipPath id="SVGID_22_">
						<use xlink:href="#SVGID_21_"  style="overflow:visible;"/>
					</clipPath>
					<g class="st12">
						<defs>
							<rect id="SVGID_23_" x="13.5" y="3.6" width="23" height="43"/>
						</defs>
						<clipPath id="SVGID_24_">
							<use xlink:href="#SVGID_23_"  style="overflow:visible;"/>
						</clipPath>
						<rect x="8.5" y="-1.4" class="st13" width="33" height="53"/>
					</g>
				</g>
			</g>
		</g>
	</g>
</g>
<g id="Calque_4" class="st0">
	<g transform="translate(0,-952.36218)" class="st1">
		<path class="st14" d="M8,962.9c-2.2,0-4,1.9-4,4.1v20.8c0,2.2,1.8,4.1,4,4.1h34c2.2,0,4-1.9,4-4.1V967c0-2.2-1.8-4.1-4-4.1
			L8,962.9L8,962.9z M8,964.9h34c0.3,0,0.6,0.1,0.8,0.2l-16.5,15.3c-0.8,0.7-1.8,0.7-2.5,0L7.2,965C7.4,964.9,7.7,964.9,8,964.9z
			 M6,966.7l11.7,10.8L6.2,988.8c-0.2-0.3-0.3-0.6-0.3-1V967C6,966.9,6,966.8,6,966.7L6,966.7z M44,966.7c0,0.1,0,0.2,0,0.3v20.8
			c0,0.4-0.1,0.7-0.2,1l-11.5-11.2L44,966.7L44,966.7z M30.8,978.9l11.2,11c0,0,0,0-0.1,0H8c0,0,0,0,0,0l11.3-11l3.2,2.9
			c1.5,1.4,3.8,1.4,5.3,0L30.8,978.9L30.8,978.9z"/>
	</g>
</g>
<g id="Calque_5">
	<g id="surface1">
		<path class="st14" d="M17.6,10.9C9.9,10.9,3.6,17.2,3.6,25s6.3,14.1,14.1,14.1S31.7,32.8,31.7,25c0-1-0.1-1.9-0.3-2.8l-0.1-0.3
			H17.6v4.7H27c-0.7,4.4-4.7,7.8-9.4,7.8c-5.2,0-9.4-4.2-9.4-9.4s4.2-9.4,9.4-9.4c2.3,0,4.5,0.9,6.1,2.3l3.4-3.3
			C24.6,12.3,21.3,10.9,17.6,10.9z M39.5,17.2v4.7h-4.7V25h4.7v4.7h3.1V25h4.7v-3.1h-4.7v-4.7H39.5z"/>
	</g>
</g>
</svg>
