<svg xmlns="http://www.w3.org/2000/svg" width="32" height="32" viewBox="0 0 32 32">
  <g fill="#64C2C8" stroke="#64C2C8" stroke-width=".5">
    <path d="M16.05,20.58 C16.0365544,21.217181 16.2803017,21.832925 16.7262285,22.2882596 C17.1721554,22.7435943 17.7826772,23.0001418 18.42,23 C19.3052871,23.0574752 20.1490622,22.6177917 20.609136,21.8592611 C21.0692099,21.1007305 21.0692099,20.1492695 20.609136,19.3907389 C20.1490622,18.6322083 19.3052871,18.1925248 18.42,18.25 C17.6633372,18.2608822 16.9573628,18.6324478 16.52,19.25 L16.45,19.34 L13.17,17.47 L13.17,17.37 C13.2988445,17.0727759 13.3701056,16.753798 13.38,16.43 C13.3948753,15.9547939 13.2621196,15.4866553 13,15.09 L13,15 L16.57,13.2 L16.63,13.27 C17.0827114,13.7857107 17.7338012,14.0839753 18.42,14.09 C19.7305423,14.0900116 20.7944935,13.0305308 20.8,11.72 C20.8574752,10.8347129 20.4177917,9.99093782 19.6592611,9.53086396 C18.9007305,9.07079009 17.9492695,9.07079009 17.1907389,9.53086396 C16.4322083,9.99093782 15.9925248,10.8347129 16.05,11.72 C16.0480703,11.916211 16.0750258,12.1116379 16.13,12.3 L16.13,12.4 L12.28,14.4 L12.22,14.4 C11.3556194,13.8986141 10.2696236,13.9932544 9.50500207,14.6366016 C8.74038056,15.2799488 8.46142906,16.3337656 8.80762117,17.2711516 C9.15381329,18.2085377 10.0507621,18.8280752 11.05,18.82 C11.5909509,18.8188028 12.1157691,18.6356448 12.54,18.3 L12.61,18.24 L16.1,20.24 L16.1,20.33 C16.0785794,20.4123116 16.0618855,20.4957813 16.05,20.58 L16.05,20.58 Z M18.39,19.13 C19.1908129,19.13 19.84,19.7791871 19.84,20.58 C19.84,21.3808129 19.1908129,22.03 18.39,22.03 C17.5891871,22.03 16.94,21.3808129 16.94,20.58 C16.9345597,20.193794 17.0855795,19.8218114 17.3586954,19.5486954 C17.6318114,19.2755795 18.003794,19.1245597 18.39,19.13 L18.39,19.13 Z M18.39,10.21 C18.9764703,10.21 19.5051929,10.5632812 19.7296253,11.105109 C19.9540578,11.6469369 19.8300019,12.2706077 19.4153048,12.6853048 C19.0006077,13.1000019 18.3769369,13.2240578 17.835109,12.9996253 C17.2932812,12.7751929 16.94,12.2464703 16.94,11.66 C16.9345597,11.273794 17.0855795,10.9018114 17.3586954,10.6286954 C17.6318114,10.3555795 18.003794,10.2045597 18.39,10.21 L18.39,10.21 Z M11,17.8 C10.2005121,17.7944862 9.5563457,17.1428778 9.56001527,16.3433793 C9.56368485,15.5438808 10.2138055,14.898213 11.0133104,14.9000383 C11.8128152,14.9018635 12.459981,15.550493 12.46,16.35 C12.462726,16.7371332 12.3094548,17.1090573 12.0347644,17.3818662 C11.760074,17.6546752 11.3871053,17.8053866 11,17.8 L11,17.8 Z"/>
    <path d="M3.38,30.41 L8.12,29 L8.23,29.08 C10.5229665,30.3999657 13.1242665,31.0899657 15.77,31.08 C22.6190567,31.0431649 28.5903417,26.4128016 30.3313058,19.7886052 C32.0722699,13.1644088 29.1492428,6.19645194 23.2033439,2.79686059 C17.2574451,-0.602730751 9.76978483,0.412874032 4.94427396,5.27346852 C0.118763082,10.134063 -0.842574328,17.6288839 2.6,23.55 L2.67,23.66 L2.67,23.66 L1.31,28.32 C1.13065701,28.9146321 1.29192931,29.5597213 1.73,30 C2.1640648,30.4273603 2.79638636,30.5844826 3.38,30.41 L3.38,30.41 Z M2.32,28.65 L3.83,23.52 L3.72,23.32 C2.35925262,21.1209876 1.63892232,18.5859791 1.64,16 C1.59948946,10.2881568 5.00904031,5.11617377 10.2745124,2.90221861 C15.5399845,0.688263447 21.6209744,1.86979106 25.6743069,5.89437659 C29.7276395,9.91896212 30.9524177,15.9913887 28.7759948,21.2724849 C26.5995719,26.553581 21.4519868,29.9998563 15.74,30 C13.1748787,30.02088 10.6544267,29.3284481 8.46,28 L8.23,27.89 L3.06,29.36 C2.85668844,29.4203708 2.63661753,29.3669743 2.48358047,29.2201415 C2.33054342,29.0733086 2.26809011,28.8556346 2.32,28.65 Z"/>
  </g>
</svg>
