<svg xmlns="http://www.w3.org/2000/svg" width="28" height="28" viewBox="0 0 28 28">
  <g fill="#64C2C8" stroke="#64C2C8" stroke-width=".5" transform="translate(1 .38)">
    <path d="M13.19,5.32907052e-15 C5.90536415,5.32907052e-15 9.11271059e-13,5.90536415 9.09494702e-13,13.19 C9.07718345e-13,20.4746359 5.90536415,26.38 13.19,26.38 C20.4746359,26.38 26.38,20.4746359 26.38,13.19 C26.3744852,5.9076497 20.4723503,0.00551484546 13.19,5.32907052e-15 Z M13.19,25.32 C6.49078598,25.32 1.06,19.889214 1.06,13.19 C1.06,6.49078598 6.49078598,1.06 13.19,1.06 C19.889214,1.06 25.32,6.49078598 25.32,13.19 C25.308989,19.8846478 19.8846478,25.308989 13.19,25.32 Z"/>
    <path d="M13.19 21.05C13.4827109 21.05 13.72 20.8127109 13.72 20.52L13.72 20.24C13.72 19.9472891 13.4827109 19.71 13.19 19.71 13.0486113 19.7072538 12.9122022 19.7622106 12.8122064 19.8622064 12.7122106 19.9622022 12.6572538 20.0986113 12.66 20.24L12.66 20.52C12.66 20.6605647 12.7158391 20.7953723 12.8152334 20.8947666 12.9146277 20.9941609 13.0494353 21.05 13.19 21.05zM15.83 14.5C17.03 13.65 18.27 12.77 18.5 11.01 18.6730466 9.63504908 18.2344196 8.25337434 17.3 7.23 16.2562016 6.03812273 14.7542325 5.34714419 13.17 5.33 10.2230819 5.33550313 7.83550313 7.72308192 7.83 10.67 7.82143672 10.8725491 7.93365476 11.0609374 8.11584128 11.1498618 8.29802781 11.2387861 8.51558422 11.2113592 8.67 11.08 8.802611 10.9845505 8.883785 10.8332717 8.89 10.67 8.89 8.30622127 10.8062213 6.39 13.17 6.39 14.4515789 6.40542568 15.6660651 6.96539836 16.51 7.93 17.2414546 8.72348841 17.5854352 9.79934274 17.45 10.87 17.28 12.18 16.28 12.87 15.22 13.63 14.1621626 14.2264239 13.3215962 15.1440422 12.82 16.25 12.7333901 16.4922572 12.6763114 16.7440751 12.65 17 12.6302421 17.1385899 12.6683213 17.2792084 12.7553111 17.3888912 12.8423009 17.498574 12.9705522 17.5676767 13.11 17.58 13.3952668 17.5997914 13.6496228 17.40148 13.7 17.12 13.83 15.91 14.76 15.25 15.83 14.5z"/>
  </g>
</svg>
