<svg xmlns="http://www.w3.org/2000/svg" width="32" height="23" viewBox="0 0 32 23">
  <path fill="#64C2C8" stroke="#64C2C8" stroke-width=".5" d="M27.91,3.94430453e-31 L2.68,3.94430453e-31 C1.19987687,-1.77635684e-15 0,1.19987687 0,2.68 L0,18.5 C0,19.9801231 1.19987687,21.18 2.68,21.18 L27.91,21.18 C29.3901231,21.18 30.59,19.9801231 30.59,18.5 L30.59,2.64 C30.5681397,1.1755213 29.3746418,-0.000163145712 27.91,3.94430453e-31 Z M2.05,1.13 C2.24919876,1.04498954 2.46342135,1.00078488 2.68,1 L27.91,1 C28.1266927,0.999673408 28.3411364,1.0439237 28.54,1.13 L28.84,1.25 L16.53,11.69 C15.8393207,12.3315284 14.7706793,12.3315284 14.08,11.69 L1.75,1.25 L2.05,1.13 Z M29.53,18.5 C29.5354242,18.9365953 29.3643813,19.3568947 29.055638,19.665638 C28.7468947,19.9743813 28.3265953,20.1454242 27.89,20.14 L2.68,20.14 C2.24340471,20.1454242 1.82310532,19.9743813 1.514362,19.665638 C1.20561869,19.3568947 1.03457583,18.9365953 1.04,18.5 L1.04,2.64 C1.03511826,2.59011916 1.03511826,2.53988084 1.04,2.49 L1.09,2.07 L13.39,12.49 C14.4817225,13.4212395 16.0882775,13.4212395 17.18,12.49 L29.53,2.06 L29.59,2.47 C29.59,2.53 29.59,2.58 29.59,2.64 L29.53,18.5 Z" transform="translate(1 1)"/>
</svg>
