<svg xmlns="http://www.w3.org/2000/svg" width="35" height="38" viewBox="0 0 35 38">
  <g fill="#867770">
    <path d="M31.71875,0.0197916667 L9.84375,0.0197916667 C9.08184015,0.0197861169 8.35129477,0.323200256 7.81357032,0.86297709 C7.27584586,1.40275392 6.97521695,2.13444987 6.978125,2.89635417 L6.978125,19.7072917 L1.09375,19.7072917 C0.717469458,19.7132651 0.415577589,20.0200262 0.415625,20.3963542 L0.415625,33.5213542 C0.401453311,34.7532324 0.967863005,35.9199506 1.9445837,36.6707778 C2.9213044,37.4216049 4.19443303,37.6689811 5.38125,37.3385417 L5.490625,37.3385417 L5.5890625,37.3385417 C5.90758195,37.4161811 6.23469315,37.4529351 6.5625,37.4479167 L30.625,37.4479167 C32.8134788,37.447925 34.5892836,35.6770121 34.5953125,33.4885417 L34.5953125,2.86354167 C34.5773358,1.28768895 33.2947052,0.0196891348 31.71875,0.0197916667 Z M6.978125,33.5213542 C6.97373888,33.7665865 6.93319827,34.0098301 6.8578125,34.2432292 L6.8578125,34.3526042 C6.44529712,35.5464313 5.23237926,36.2691367 3.98611321,36.0636785 C2.73984717,35.8582204 1.8230994,34.7844204 1.815625,33.5213542 L1.815625,21.0416667 L7.0109375,21.0416667 L6.978125,33.5213542 Z M33.228125,33.5213542 C33.2221023,34.9547472 32.0584057,36.1135543 30.625,36.1135417 L7.4375,36.1135417 L7.7984375,35.5010417 C7.84267324,35.4304748 7.88284281,35.3574392 7.91875,35.2822917 L7.984375,35.1401042 C8.005318,35.0833948 8.03092655,35.0285193 8.0609375,34.9760417 C8.1256579,34.7932032 8.18042565,34.6069929 8.225,34.4182292 C8.23009928,34.3527032 8.23009928,34.2868801 8.225,34.2213542 C8.27459131,33.9912853 8.30024871,33.7567034 8.3015625,33.5213542 L8.3015625,2.89635417 C8.28932791,2.48371149 8.44787584,2.08430131 8.73978649,1.79239066 C9.03169714,1.50048 9.43110733,1.34193208 9.84375,1.35416667 L31.71875,1.35416667 C32.5523548,1.35416667 33.228125,2.02993687 33.228125,2.86354167 L33.228125,33.5213542 Z"/>
    <path d="M27.0484375 6.82291667L13.9234375 6.82291667C13.6214068 6.82291667 13.3765625 7.06776094 13.3765625 7.36979167 13.3765625 7.67182239 13.6214068 7.91666667 13.9234375 7.91666667L27.0484375 7.91666667C27.3504682 7.91666667 27.5953125 7.67182239 27.5953125 7.36979167 27.5953125 7.06776094 27.3504682 6.82291667 27.0484375 6.82291667zM26.8953125 11.1979167L13.7703125 11.1979167C13.4682818 11.1979167 13.2234375 11.4427609 13.2234375 11.7447917 13.2234375 12.0468224 13.4682818 12.2916667 13.7703125 12.2916667L26.8953125 12.2916667C27.1973432 12.2916667 27.4421875 12.0468224 27.4421875 11.7447917 27.4421875 11.4427609 27.1973432 11.1979167 26.8953125 11.1979167zM26.8953125 15.6276042L13.7703125 15.6276042C13.4682818 15.6276042 13.2234375 15.8724484 13.2234375 16.1744792 13.2234375 16.4765099 13.4682818 16.7213542 13.7703125 16.7213542L26.8953125 16.7213542C27.1973432 16.7213542 27.4421875 16.4765099 27.4421875 16.1744792 27.4421875 15.8724484 27.1973432 15.6276042 26.8953125 15.6276042zM26.8953125 19.9479167L13.7703125 19.9479167C13.4682818 19.9479167 13.2234375 20.1927609 13.2234375 20.4947917 13.2234375 20.7968224 13.4682818 21.0416667 13.7703125 21.0416667L26.8953125 21.0416667C27.1973432 21.0416667 27.4421875 20.7968224 27.4421875 20.4947917 27.4421875 20.1927609 27.1973432 19.9479167 26.8953125 19.9479167zM26.8953125 24.3229167L13.7703125 24.3229167C13.4682818 24.3229167 13.2234375 24.5677609 13.2234375 24.8697917 13.2234375 25.1718224 13.4682818 25.4166667 13.7703125 25.4166667L26.8953125 25.4166667C27.1973432 25.4166667 27.4421875 25.1718224 27.4421875 24.8697917 27.4421875 24.5677609 27.1973432 24.3229167 26.8953125 24.3229167z"/>
  </g>
</svg>
