<svg xmlns="http://www.w3.org/2000/svg" xmlns:xlink="http://www.w3.org/1999/xlink" width="16" height="16" viewBox="0 0 16 16">
  <defs>
    <polygon id="search-a" points="0 0 16.317 0 16.317 16.184 0 16.184"/>
  </defs>
  <g fill="none" fill-rule="evenodd">
    <mask id="search-b" fill="#fff">
      <use xlink:href="#search-a"/>
    </mask>
    <path fill="#000" d="M12.9205333,9.25231883 C12.0384432,12.2551343 8.94080061,13.9442959 6.03249549,13.0454036 C3.10475037,12.1406959 1.45781781,8.96362651 2.33423784,5.98074947 C3.21045538,2.99787243 6.3139705,1.28877236 9.22227562,2.1876647 C12.1558932,3.07264166 13.8026233,6.24950333 12.9205333,9.25231883 M13.3887133,16.9456576 L13.3887133,16.9456576 C13.6466983,16.786773 13.7210158,16.4625653 13.5661033,16.1977576 L11.6613882,12.9629497 C12.9019033,11.9797343 13.8034333,10.5663881 14.1061708,8.81616497 C14.6780308,5.71739561 13.0389958,2.58622626 10.2046032,1.3633339 C6.3913255,-0.270789242 2.12546033,2.01174931 1.1840378,6.08064947 C0.431345267,9.36218806 2.21962284,12.7781036 5.32151796,13.9536421 C7.20598304,14.6662344 9.17306811,14.449819 10.7683632,13.5546652 L12.6595108,16.7637191 C12.8202958,17.0085884 13.1363983,17.0846038 13.3887133,16.9456576" mask="url(#search-b)" transform="rotate(-15 7.616 8.923)"/>
  </g>
</svg>
