<svg xmlns="http://www.w3.org/2000/svg" width="32" height="29" viewBox="0 0 32 29">
  <g fill="#64C2C8">
    <path d="M8.36324324 26.4735135C7.51321664 26.4735135 6.74688914 25.9614698 6.42159804 25.1761477 6.09630695 24.3908255 6.27611277 23.4868806 6.87717234 22.885821 7.47823192 22.2847614 8.38217684 22.1049556 9.16749902 22.4302467 9.9528212 22.7555378 10.4648649 23.5218653 10.4648649 24.3718919 10.4648649 25.5325855 9.52393681 26.4735135 8.36324324 26.4735135zM8.36324324 23.1351351C7.68020135 23.1351351 7.12648649 23.68885 7.12648649 24.3718919 7.12648649 25.0549338 7.68020135 25.6086486 8.36324324 25.6086486 9.04628514 25.6086486 9.6 25.0549338 9.6 24.3718919 9.6 24.0438836 9.46969922 23.7293097 9.23776233 23.4973728 9.00582545 23.2654359 8.69125153 23.1351351 8.36324324 23.1351351zM20.6616216 26.4735135C19.811595 26.4735135 19.0452675 25.9614698 18.7199764 25.1761477 18.3946853 24.3908255 18.5744911 23.4868806 19.1755507 22.885821 19.7766103 22.2847614 20.6805552 22.1049556 21.4658774 22.4302467 22.2511996 22.7555378 22.7632432 23.5218653 22.7632432 24.3718919 22.758504 25.5306167 21.8203465 26.4687743 20.6616216 26.4735135zM20.6616216 23.1351351C19.9785797 23.1351351 19.4248649 23.68885 19.4248649 24.3718919 19.4248649 25.0549338 19.9785797 25.6086486 20.6616216 25.6086486 21.3446635 25.6086486 21.8983784 25.0549338 21.8983784 24.3718919 21.8936649 23.690812 21.3427016 23.1398487 20.6616216 23.1351351L20.6616216 23.1351351z"/>
    <path d="M30.7372973,22.3481081 L28.652973,22.3481081 L28.652973,20.2983784 C28.6529958,20.1798824 28.6053395,20.0663608 28.5207407,19.9833889 C28.4361419,19.900417 28.3217165,19.8549738 28.2032432,19.8572973 L26.9318919,19.8572973 L26.9318919,18.7675676 L28.0648649,18.7675676 C28.1833609,18.7675903 28.2968824,18.7199341 28.3798543,18.6353353 C28.4628262,18.5507365 28.5082694,18.436311 28.5059459,18.3178378 L28.5059459,16.5881081 C28.5059459,16.3445058 28.3084672,16.147027 28.0648649,16.147027 L26.9318919,16.147027 L26.9318919,9.97189189 C27.6400479,9.5630522 28.0779667,8.80904149 28.0821622,7.99135135 L28.0821622,6.82378378 C28.0870008,6.79515798 28.0870008,6.7659231 28.0821622,6.7372973 L28.0821622,6.59891892 C27.7794595,5.73405405 27.4854054,4.8172973 27.2172973,3.92648649 L27.2172973,3.84 C26.9145946,2.97513514 26.6118919,2.05837838 26.3005405,1.17621622 C26.237208,0.943114779 25.998164,0.804315051 25.7643243,0.864864865 L3.2,0.864864865 C3.01018262,0.863715493 2.84180764,0.986488918 2.78486486,1.16756757 L2.31783784,2.52540541 L1.84216216,3.92648649 L1.36648649,5.32756757 C1.21081081,5.7772973 1.05513514,6.19243243 0.908108108,6.67675676 L0.908108108,6.74594595 C0.908108108,6.74594595 0.908108108,6.74594595 0.908108108,6.82378378 L0.908108108,7.99135135 C0.909161157,8.81670623 1.35556287,9.57724248 2.07567568,9.98054054 L2.07567568,16.1643243 L1.32324324,16.1643243 C1.20329401,16.1596168 1.08660742,16.2040011 1.00010885,16.2872355 C0.913610286,16.37047 0.864772524,16.4853639 0.864864865,16.6054054 L0.864864865,18.3351351 C0.862541412,18.4536083 0.907984575,18.5680338 0.990956492,18.6526326 C1.07392841,18.7372314 1.18744996,18.7848876 1.30594595,18.7848649 L2.01513514,18.7848649 L2.01513514,19.8918919 L0.761081081,19.8918919 C0.642607874,19.8895684 0.528182447,19.9350116 0.443583629,20.0179835 C0.35898481,20.1009554 0.31132857,20.214477 0.311351351,20.332973 L0.311351351,24.5362162 C0.31132857,24.6547122 0.35898481,24.7682338 0.443583629,24.8512057 C0.528182447,24.9341776 0.642607874,24.9796208 0.761081081,24.9772973 L4.00432432,24.9772973 C4.28157813,27.1735778 6.14953197,28.8205501 8.36324324,28.8205501 C10.5769545,28.8205501 12.4449084,27.1735778 12.7221622,24.9772973 L16.3027027,24.9772973 C16.5950078,27.1587541 18.4563439,28.7873154 20.6572973,28.7873154 C22.8582507,28.7873154 24.7195868,27.1587541 25.0118919,24.9772973 L30.7372973,24.9772973 C30.9808997,24.9772973 31.1783784,24.7798186 31.1783784,24.5362162 L31.1783784,22.8064865 C31.1830859,22.6865373 31.1387016,22.5698507 31.0554672,22.4833521 C30.9722327,22.3968535 30.8573388,22.3480158 30.7372973,22.3481081 L30.7372973,22.3481081 Z M2.03243243,24.0778378 L1.16756757,24.0778378 L1.16756757,20.7567568 L2.03243243,20.7567568 L2.03243243,24.0778378 Z M27.1913514,7.26486486 L27.1913514,7.99135135 C27.1995964,8.56534892 26.8568626,9.08630442 26.3264865,9.30594595 C25.9926438,9.43536133 25.6224913,9.43536133 25.2886486,9.30594595 C24.7394697,9.10096613 24.3744432,8.57753202 24.3718919,7.99135135 L24.3718919,7.26486486 L27.1913514,7.26486486 Z M26.0410811,10.2832432 L26.0410811,16.1643243 L25.4875676,16.1643243 L25.4875676,10.2745946 L25.7297297,10.2745946 L26.0410811,10.2745946 L26.0410811,10.2832432 Z M25.4443243,1.72972973 C25.7210811,2.51675676 25.9805405,3.30378378 26.2486486,4.09081081 L26.2486486,4.18594595 C26.4994595,4.90378378 26.7416216,5.62162162 26.9837838,6.34810811 L24.2162162,6.34810811 C24.0172973,5.54378378 23.8183784,4.73945946 23.6281081,3.92648649 L23.1005405,1.72972973 L25.4443243,1.72972973 Z M22.1837838,1.72972973 L22.7805405,4.1427027 C22.9535135,4.87783784 23.1351351,5.60432432 23.3167568,6.34810811 L20.5059459,6.34810811 L19.8313514,1.72972973 L22.1837838,1.72972973 Z M23.4378378,7.26486486 L23.4378378,7.99135135 C23.4378378,8.78425313 22.7950639,9.42702703 22.0021622,9.42702703 C21.2092604,9.42702703 20.5664865,8.78425313 20.5664865,7.99135135 L20.5664865,7.26486486 L23.4378378,7.26486486 Z M18.9318919,1.72972973 L19.6064865,6.34810811 L16.787027,6.34810811 C16.787027,6.01945946 16.787027,5.69081081 16.7437838,5.36216216 C16.7005405,5.03351351 16.6918919,4.4972973 16.6745946,4.01297297 C16.6572973,3.52864865 16.6227027,3.09621622 16.6054054,2.63783784 L16.5535135,1.72972973 L18.9318919,1.72972973 Z M19.6756757,7.23027027 L19.6756757,7.95675676 C19.6175302,8.70421505 18.9940408,9.28108633 18.2443243,9.28108633 C17.4946079,9.28108633 16.8711184,8.70421505 16.812973,7.95675676 L16.812973,7.26486486 L19.6756757,7.23027027 Z M13.1718919,4.32432432 L13.1718919,4.09945946 L13.2237838,2.94054054 L13.2237838,2.75027027 L13.292973,1.72972973 L15.6627027,1.72972973 L15.7145946,2.68108108 C15.7145946,3.13945946 15.7145946,3.59783784 15.7837838,4.05621622 C15.852973,4.51459459 15.827027,4.92108108 15.852973,5.40540541 C15.852973,5.71675676 15.852973,6.02810811 15.8962162,6.34810811 L13.0681081,6.34810811 L13.1718919,4.32432432 Z M13.0421622,7.27351351 L15.9221622,7.27351351 L15.9221622,8 C15.8638316,8.7521036 15.2365243,9.33264284 14.4821622,9.33264284 C13.7278,9.33264284 13.1004927,8.7521036 13.0421622,8 L13.0421622,7.27351351 Z M9.70378378,4.03891892 C9.81621622,3.27783784 9.92,2.52540541 10.0237838,1.77297297 L12.4021622,1.77297297 C12.4021622,2.08432432 12.4021622,2.39567568 12.3589189,2.70702703 C12.3589189,3.15675676 12.307027,3.57189189 12.2897297,4.05621622 L12.2897297,4.16 C12.2897297,4.90378378 12.2205405,5.64756757 12.1859459,6.39135135 L9.35783784,6.39135135 L9.70378378,4.03891892 Z M9.28864865,7.27351351 L12.1513514,7.27351351 L12.1513514,8 C12.0932059,8.74745829 11.4697165,9.32432957 10.72,9.32432957 C9.97028353,9.32432957 9.3467941,8.74745829 9.28864865,8 L9.28864865,7.27351351 Z M10.7243243,10.3005405 C11.4683412,10.3028496 12.1675389,9.94519551 12.6010811,9.34054054 C13.0389115,9.94215766 13.7380932,10.298059 14.4821622,10.298059 C15.2262312,10.298059 15.9254128,9.94215766 16.3632432,9.34054054 C16.7987014,9.94296562 17.49667,10.299991 18.24,10.3005405 C18.984363,10.3042993 19.6841875,9.94632455 20.1167568,9.34054054 C20.5564433,9.94225179 21.2569235,10.2979592 22.0021622,10.2979592 C22.7474009,10.2979592 23.447881,9.94225179 23.8875676,9.34054054 C24.0741557,9.60331267 24.3162761,9.82181152 24.5967568,9.98054054 L24.5967568,16.172973 L4.36756757,16.172973 L4.36756757,9.97189189 C4.64804827,9.81316287 4.89016862,9.59466402 5.07675676,9.33189189 C5.51644334,9.93360314 6.21692346,10.2893106 6.96216216,10.2893106 C7.70740086,10.2893106 8.40788098,9.93360314 8.84756757,9.33189189 C9.28013681,9.9376759 9.97996132,10.2956506 10.7243243,10.2918919 L10.7243243,10.3005405 Z M5.53513514,8 L5.53513514,7.26486486 L8.40648649,7.26486486 L8.40648649,7.99135135 C8.40648649,8.78425313 7.76371259,9.42702703 6.97081081,9.42702703 C6.17790903,9.42702703 5.53513514,8.78425313 5.53513514,7.99135135 L5.53513514,8 Z M6.77189189,1.72972973 L9.12432432,1.72972973 C9.02918919,2.43891892 8.92540541,3.14810811 8.82162162,3.86594595 L8.45837838,6.34810811 L5.64756757,6.34810811 C5.82918919,5.60432432 6.01081081,4.86918919 6.18378378,4.12540541 C6.35675676,3.38162162 6.58162162,2.59459459 6.77189189,1.72972973 Z M2.04972973,6.05405405 L2.91459459,3.58918919 L2.91459459,3.58918919 L3.13945946,2.91459459 L3.13945946,2.91459459 L3.52,1.72972973 L5.85513514,1.72972973 L5.85513514,1.87675676 C5.69081081,2.56 5.52648649,3.24324324 5.35351351,3.93513514 C5.18054054,4.62702703 5.01621622,5.33621622 4.83459459,6.04540541 L4.83459459,6.04540541 L4.76540541,6.33945946 L1.94594595,6.33945946 L2.04972973,6.05405405 Z M1.77297297,7.95675676 L1.77297297,7.26486486 L4.63567568,7.26486486 L4.63567568,7.99135135 C4.63511399,8.40112924 4.45627741,8.79038339 4.14573741,9.0577467 C3.8351974,9.32511002 3.42369039,9.44411962 3.01837838,9.38378378 L2.92324324,9.38378378 C2.83455769,9.36582972 2.74770699,9.33977451 2.66378378,9.30594595 L2.59459459,9.30594595 C2.08274113,9.07117911 1.75970401,8.55431971 1.77297297,7.99135135 L1.77297297,7.95675676 Z M3.5027027,10.2486486 L3.5027027,16.1297297 L2.93189189,16.1297297 L2.93189189,10.2745946 L3.16540541,10.2745946 L3.45945946,10.2745946 L3.5027027,10.2486486 Z M1.77297297,17.8421622 L1.77297297,16.9772973 L27.6151351,16.9772973 L27.6151351,17.8421622 L1.77297297,17.8421622 Z M8.36324324,27.8832432 C6.92397587,27.8867409 5.62464386,27.0219763 5.07224316,25.6929329 C4.51984247,24.3638895 4.82340842,22.8328999 5.84112715,21.8151812 C6.85884588,20.7974625 8.38983548,20.4938965 9.71887886,21.0462972 C11.0479222,21.5986979 11.9126868,22.8980299 11.9091892,24.3372973 C11.9160952,25.2830247 11.5458328,26.1925141 10.8803389,26.8645007 C10.214845,27.5364872 9.30899316,27.915562 8.36324324,27.9178378 L8.36324324,27.8832432 Z M20.6616216,27.84 C19.2223542,27.8434976 17.9230222,26.978733 17.3706215,25.6496897 C16.8182208,24.3206463 17.1217868,22.7896567 18.1395055,21.771938 C19.1572243,20.7542192 20.6882139,20.4506533 22.0172572,21.003054 C23.3463006,21.5554547 24.2110652,22.8547867 24.2075676,24.2940541 C24.2144736,25.2397815 23.8442112,26.1492709 23.1787173,26.8212574 C22.5132233,27.493244 21.6073715,27.8723187 20.6616216,27.8745946 L20.6616216,27.84 Z M26.0410811,19.027027 L26.0410811,24.0345946 L25.0810811,24.0345946 C24.976812,21.686224 23.0425761,19.8359638 20.6918919,19.8359638 C18.3412077,19.8359638 16.4069718,21.686224 16.3027027,24.0345946 L12.7481081,24.0345946 C12.6026425,21.7196784 10.6827254,19.9166189 8.36324324,19.9166189 C6.04376113,19.9166189 4.12384399,21.7196784 3.97837838,24.0345946 L2.92324324,24.0345946 L2.92324324,18.7675676 L26.0410811,18.7675676 L26.0410811,19.027027 Z M30.2702703,24.0518919 L26.9318919,24.0518919 L26.9318919,20.7567568 L27.7967568,20.7567568 L27.7967568,22.8151351 C27.7967568,23.0587375 27.9942355,23.2562162 28.2378378,23.2562162 L30.2702703,23.2562162 L30.2702703,24.0518919 Z"/>
  </g>
</svg>
