<svg xmlns="http://www.w3.org/2000/svg" xmlns:xlink="http://www.w3.org/1999/xlink" width="16" height="13" viewBox="0 0 16 13">
  <defs>
    <path id="twitter-a" d="M15.285924,1.50143135 C14.726705,1.75609756 14.1246065,1.92831787 13.4930285,2.00526738 C14.1380063,1.60952708 14.6329062,0.982022215 14.8660631,0.234512768 C14.262178,0.600938967 13.5948671,0.867514027 12.8819968,1.01042025 C12.3138446,0.388411771 11.5018157,0 10.6031346,0 C8.87991813,0 7.48187056,1.43364251 7.48187056,3.20164892 C7.48187056,3.45265086 7.50867019,3.69632429 7.56226946,3.93083705 C4.96717156,3.79709149 2.66686963,2.52376045 1.12589067,0.584449788 C0.857001011,1.05897172 0.703349775,1.60952708 0.703349775,2.195809 C0.703349775,3.30608038 1.25452892,4.28627047 2.09246414,4.86064354 C1.58148445,4.84507042 1.09909104,4.69941601 0.677443462,4.46123898 L0.677443462,4.5006298 C0.677443462,6.05244475 1.75389543,7.3468453 3.18320925,7.63998626 C2.92146616,7.71510363 2.64542993,7.75266232 2.36046048,7.75266232 C2.15946323,7.75266232 1.96293258,7.73342494 1.77265518,7.69586625 C2.17018308,8.96736517 3.32256735,9.89350739 4.68934868,9.91824115 C3.62093661,10.7775106 2.27380833,11.2895912 0.811441633,11.2895912 C0.559525072,11.2895912 0.310288475,11.2749342 0.0664118053,11.2456201 C1.4483796,12.1525249 3.09030385,12.6829268 4.85282645,12.6829268 C10.5968814,12.6829268 13.7369052,7.80487805 13.7369052,3.57357151 C13.7369052,3.43432955 13.7342252,3.2950876 13.7288653,3.15859384 C14.3390036,2.70697355 14.868743,2.14359327 15.285924,1.50143135"/>
  </defs>
  <use fill="#867770" fill-rule="evenodd" xlink:href="#twitter-a"/>
</svg>
