<svg xmlns="http://www.w3.org/2000/svg" xmlns:xlink="http://www.w3.org/1999/xlink" width="20" height="14" viewBox="0 0 20 14">
  <defs>
    <path id="youtube-a" d="M8.25254902,9.43830068 L8.25196078,4.15634395 L13.3378431,6.80642812 L8.25254902,9.43830068 Z M19.4196078,3.24106327 C19.4196078,3.24106327 19.2354902,1.9456885 18.6713725,1.37525362 C17.9554902,0.626227396 17.1531373,0.622702567 16.7854902,0.579229672 C14.1513725,0.388888889 10.2001961,0.388888889 10.2001961,0.388888889 L10.1919608,0.388888889 C10.1919608,0.388888889 6.24078431,0.388888889 3.60666667,0.579229672 C3.23843137,0.622702567 2.43666667,0.626227396 1.72019608,1.37525362 C1.15607843,1.9456885 0.97254902,3.24106327 0.97254902,3.24106327 C0.97254902,3.24106327 0.784313725,4.76261459 0.784313725,6.28357844 L0.784313725,7.70995937 C0.784313725,9.23151069 0.97254902,10.7524745 0.97254902,10.7524745 C0.97254902,10.7524745 1.15607843,12.0478493 1.72019608,12.6182842 C2.43666667,13.3673104 3.3772549,13.3438116 3.79607843,13.4219453 C5.30196078,13.5664633 10.1960784,13.6111111 10.1960784,13.6111111 C10.1960784,13.6111111 14.1513725,13.6052364 16.7854902,13.4148956 C17.1531373,13.3708352 17.9554902,13.3673104 18.6713725,12.6182842 C19.2354902,12.0478493 19.4196078,10.7524745 19.4196078,10.7524745 C19.4196078,10.7524745 19.6078431,9.23151069 19.6078431,7.70995937 L19.6078431,6.28357844 C19.6078431,4.76261459 19.4196078,3.24106327 19.4196078,3.24106327 L19.4196078,3.24106327 Z"/>
  </defs>
  <use fill="#867770" fill-rule="evenodd" xlink:href="#youtube-a"/>
</svg>
